<svg width="96" height="83" viewBox="0 0 96 83" fill="none" xmlns="http://www.w3.org/2000/svg">
<g filter="url(#filter0_f_9_447)">
    <defs>
        <filter id="filter0_f_9_447" x="19" y="27" width="37.7635" height="34" filterUnits="userSpaceOnUse" color-interpolation-filters="sRGB">
            <feFlood flood-opacity="0" result="BackgroundImageFix"/>
            <feBlend mode="normal" in="SourceGraphic" in2="BackgroundImageFix" result="shape"/>
            <feGaussianBlur stdDeviation="0.5" result="effect1_foregroundBlur_9_447"/>
        </filter>
        <filter id="filter1_d_9_447" x="3.05176e-05" y="0" width="95.7635" height="82.3687" filterUnits="userSpaceOnUse" color-interpolation-filters="sRGB">
            <feFlood flood-opacity="0" result="BackgroundImageFix"/>
            <feColorMatrix in="SourceAlpha" type="matrix" values="0 0 0 0 0 0 0 0 0 0 0 0 0 0 0 0 0 0 127 0" result="hardAlpha"/>
            <feOffset dx="10" dy="2"/>
            <feGaussianBlur stdDeviation="15"/>
            <feColorMatrix type="matrix" values="0 0 0 0 0.501961 0 0 0 0 0.501961 0 0 0 0 0.501961 0 0 0 0.302 0"/>
            <feBlend mode="normal" in2="BackgroundImageFix" result="effect1_dropShadow_9_447"/>
            <feBlend mode="normal" in="SourceGraphic" in2="effect1_dropShadow_9_447" result="shape"/>
        </filter>
        <linearGradient id="paint0_linear_9_447" x1="37.8844" y1="28.0005" x2="48.2733" y2="53.1181" gradientUnits="userSpaceOnUse">
            <stop stop-color="white" stop-opacity="0.604"/>
            <stop offset="1" stop-color="white" stop-opacity="0.2"/>
        </linearGradient>
    </defs>
<path d="M29.8155 42.5098C29.888 42.5116 30.6234 45.0652 30.6234 46.0575C30.6234 47.0498 30.2617 47.8544 29.8155 47.8544C29.3694 47.8544 29.0077 47.0499 29.0077 46.0576C29.0077 45.0653 29.7431 42.508 29.8155 42.5098Z" fill="#42A0F0"/>
<path d="M29.4252 46.3611C29.5432 46.3972 29.6987 46.231 29.7724 45.9898C29.8461 45.7486 29.8102 45.5238 29.6922 45.4877C29.5742 45.4516 29.4187 45.6179 29.345 45.8591C29.2712 46.1003 29.3071 46.3251 29.4252 46.3611Z" fill="white"/>
<path d="M35.4219 42.5098C35.4943 42.5116 36.2298 45.0652 36.2298 46.0575C36.2298 47.0498 35.868 47.8544 35.4219 47.8544C34.9757 47.8544 34.614 47.0499 34.614 46.0576C34.614 45.0653 35.3494 42.508 35.4219 42.5098Z" fill="#42A0F0"/>
<path d="M35.0315 46.3611C35.1495 46.3972 35.305 46.231 35.3787 45.9898C35.4525 45.7486 35.4166 45.5238 35.2985 45.4877C35.1805 45.4516 35.025 45.6179 34.9513 45.8591C34.8775 46.1003 34.9135 46.3251 35.0315 46.3611Z" fill="white"/>
<path d="M41.4367 42.5098C41.5092 42.5116 42.2446 45.0652 42.2446 46.0575C42.2446 47.0498 41.8829 47.8544 41.4367 47.8544C40.9906 47.8544 40.6288 47.0499 40.6288 46.0576C40.6288 45.0653 41.3642 42.508 41.4367 42.5098Z" fill="#42A0F0"/>
<path d="M41.0463 46.3611C41.1644 46.3972 41.3198 46.231 41.3936 45.9898C41.4673 45.7486 41.4314 45.5238 41.3134 45.4877C41.1954 45.4516 41.0399 45.6179 40.9662 45.8591C40.8924 46.1003 40.9283 46.3251 41.0463 46.3611Z" fill="white"/>
<path d="M46.992 42.2061C47.0645 42.2079 47.7999 44.7615 47.7999 45.7538C47.7999 46.7461 47.4382 47.5507 46.992 47.5507C46.5459 47.5507 46.1841 46.7462 46.1841 45.7539C46.1841 44.7616 46.9196 42.2043 46.992 42.2061Z" fill="#42A0F0"/>
<path d="M46.6017 46.0574C46.7197 46.0935 46.8752 45.9272 46.9489 45.6861C47.0227 45.4449 46.9867 45.2201 46.8687 45.184C46.7507 45.1479 46.5952 45.3142 46.5215 45.5554C46.4477 45.7966 46.4836 46.0214 46.6017 46.0574Z" fill="white"/>
<path d="M38.2524 49.291C38.3249 49.2928 39.0603 51.8465 39.0603 52.8388C39.0603 53.8311 38.6986 54.6356 38.2524 54.6356C37.8063 54.6356 37.4445 53.8312 37.4445 52.8389C37.4445 51.8466 38.1799 49.2893 38.2524 49.291Z" fill="#42A0F0"/>
<path d="M37.8621 53.1424C37.9801 53.1785 38.1355 53.0122 38.2093 52.771C38.283 52.5298 38.2471 52.305 38.1291 52.269C38.0111 52.2329 37.8556 52.3991 37.7819 52.6403C37.7081 52.8815 37.744 53.1063 37.8621 53.1424Z" fill="white"/>
<path d="M44.2671 49.291C44.3396 49.2928 45.075 51.8465 45.075 52.8388C45.075 53.8311 44.7133 54.6356 44.2671 54.6356C43.821 54.6356 43.4593 53.8312 43.4593 52.8389C43.4593 51.8466 44.1947 49.2893 44.2671 49.291Z" fill="#42A0F0"/>
<path d="M43.8768 53.1424C43.9948 53.1785 44.1503 53.0122 44.224 52.771C44.2978 52.5298 44.2619 52.305 44.1438 52.269C44.0258 52.2329 43.8703 52.3991 43.7966 52.6403C43.7229 52.8815 43.7588 53.1063 43.8768 53.1424Z" fill="white"/>
<path d="M50.6357 49.291C50.7082 49.2928 51.4436 51.8465 51.4436 52.8388C51.4436 53.8311 51.0819 54.6356 50.6357 54.6356C50.1896 54.6356 49.8279 53.8312 49.8279 52.8389C49.8279 51.8466 50.5633 49.2893 50.6357 49.291Z" fill="#42A0F0"/>
<path d="M50.2454 53.1424C50.3634 53.1785 50.5189 53.0122 50.5926 52.771C50.6664 52.5298 50.6305 52.305 50.5124 52.269C50.3944 52.2329 50.2389 52.3991 50.1652 52.6403C50.0914 52.8815 50.1274 53.1063 50.2454 53.1424Z" fill="white"/>
<path d="M32.2377 49.5947C32.3101 49.5965 33.0456 52.1502 33.0456 53.1425C33.0456 54.1348 32.6838 54.9393 32.2377 54.9393C31.7915 54.9393 31.4298 54.1349 31.4298 53.1426C31.4298 52.1503 32.1652 49.593 32.2377 49.5947Z" fill="#42A0F0"/>
<path d="M31.8473 53.4461C31.9653 53.4822 32.1208 53.3159 32.1945 53.0747C32.2683 52.8335 32.2324 52.6087 32.1144 52.5727C31.9963 52.5366 31.8409 52.7029 31.7671 52.944C31.6934 53.1852 31.7293 53.41 31.8473 53.4461Z" fill="white"/>
<path d="M26.5767 49.291C26.6492 49.2928 27.3846 51.8465 27.3846 52.8388C27.3846 53.8311 27.0228 54.6356 26.5767 54.6356C26.1305 54.6356 25.7688 53.8312 25.7688 52.8389C25.7688 51.8466 26.5042 49.2893 26.5767 49.291Z" fill="#42A0F0"/>
<path d="M26.1863 53.1424C26.3044 53.1785 26.4598 53.0122 26.5336 52.771C26.6073 52.5298 26.5714 52.305 26.4534 52.269C26.3353 52.2329 26.1799 52.3991 26.1061 52.6403C26.0324 52.8815 26.0683 53.1063 26.1863 53.1424Z" fill="white"/>
<path d="M29.8155 54.6553C29.888 54.6571 30.6234 57.2107 30.6234 58.203C30.6234 59.1953 30.2617 59.9999 29.8155 59.9999C29.3694 59.9999 29.0077 59.1954 29.0077 58.2031C29.0077 57.2108 29.7431 54.6536 29.8155 54.6553Z" fill="#42A0F0"/>
<path d="M29.4252 58.5067C29.5432 58.5427 29.6987 58.3765 29.7724 58.1353C29.8461 57.8941 29.8102 57.6693 29.6922 57.6332C29.5742 57.5971 29.4187 57.7634 29.345 58.0046C29.2712 58.2458 29.3071 58.4706 29.4252 58.5067Z" fill="white"/>
<path d="M35.4219 54.6553C35.4943 54.6571 36.2298 57.2107 36.2298 58.203C36.2298 59.1953 35.868 59.9999 35.4219 59.9999C34.9757 59.9999 34.614 59.1954 34.614 58.2031C34.614 57.2108 35.3494 54.6536 35.4219 54.6553Z" fill="#42A0F0"/>
<path d="M35.0315 58.5067C35.1495 58.5427 35.305 58.3765 35.3787 58.1353C35.4525 57.8941 35.4166 57.6693 35.2985 57.6332C35.1805 57.5971 35.025 57.7634 34.9513 58.0046C34.8775 58.2458 34.9135 58.4706 35.0315 58.5067Z" fill="white"/>
<path d="M41.4367 54.6553C41.5092 54.6571 42.2446 57.2107 42.2446 58.203C42.2446 59.1953 41.8829 59.9999 41.4367 59.9999C40.9906 59.9999 40.6288 59.1954 40.6288 58.2031C40.6288 57.2108 41.3642 54.6536 41.4367 54.6553Z" fill="#42A0F0"/>
<path d="M41.0463 58.5067C41.1644 58.5427 41.3198 58.3765 41.3936 58.1353C41.4673 57.8941 41.4314 57.6693 41.3134 57.6332C41.1954 57.5971 41.0399 57.7634 40.9662 58.0046C40.8924 58.2458 40.9283 58.4706 41.0463 58.5067Z" fill="white"/>
<path d="M46.992 54.6553C47.0645 54.6571 47.7999 57.2107 47.7999 58.203C47.7999 59.1953 47.4382 59.9999 46.992 59.9999C46.5459 59.9999 46.1841 59.1954 46.1841 58.2031C46.1841 57.2108 46.9196 54.6536 46.992 54.6553Z" fill="#42A0F0"/>
<path d="M46.6017 58.5067C46.7197 58.5427 46.8752 58.3765 46.9489 58.1353C47.0227 57.8941 46.9867 57.6693 46.8687 57.6332C46.7507 57.5971 46.5952 57.7634 46.5215 58.0046C46.4477 58.2458 46.4836 58.4706 46.6017 58.5067Z" fill="white"/>
<g filter="url(#filter1_d_9_447)">
<path d="M46.6543 50.3685H27.2787C25.3991 50.3671 23.593 49.6386 22.2383 48.3356C20.8837 47.0326 20.0856 45.2561 20.0112 43.378C19.9367 41.4999 20.5917 39.6658 21.8389 38.2597C23.0862 36.8535 24.829 35.9844 26.7026 35.8342C26.9698 33.9476 27.8217 32.1922 29.1386 30.815C30.4555 29.4378 32.1709 28.5081 34.0437 28.1568C35.9165 27.8054 37.8523 28.05 39.5788 28.8562C41.3053 29.6624 42.7356 30.9895 43.6685 32.651C45.3795 32.0587 47.2282 31.9895 48.9787 32.4522C50.7292 32.9149 52.3022 33.8885 53.4971 35.2489C54.6919 36.6092 55.4545 38.2947 55.6876 40.0902C55.9206 41.8858 55.6135 43.7101 54.8055 45.3304C54.3313 46.7944 53.4055 48.0706 52.161 48.9757C50.9164 49.8809 49.4171 50.3685 47.8782 50.3685H46.6543Z" fill="url(#paint0_linear_9_447)"/>
<path d="M47.8781 50.267C48.6595 50.267 49.4278 50.1423 50.1616 49.8962C50.8712 49.6583 51.5373 49.311 52.1416 48.8642C52.7389 48.4224 53.2624 47.8933 53.6978 47.2914C54.1385 46.682 54.4788 46.0117 54.7091 45.299L54.7114 45.2917L54.7149 45.2848C55.0212 44.6727 55.257 44.0252 55.4159 43.3603C55.5794 42.676 55.6623 41.969 55.6623 41.259C55.6623 40.6477 55.6007 40.0369 55.4793 39.4434C55.361 38.8651 55.1844 38.2963 54.9545 37.7527C54.7287 37.2189 54.4493 36.7041 54.1239 36.2226C53.8017 35.7456 53.4316 35.297 53.0239 34.8893C52.6163 34.4817 52.1677 34.1116 51.6907 33.7893C51.2091 33.464 50.6943 33.1846 50.1606 32.9588C49.617 32.7289 49.0481 32.5523 48.4698 32.4339C47.8764 32.3125 47.2655 32.2509 46.6543 32.2509C45.6422 32.2509 44.6487 32.4175 43.7015 32.746L43.6216 32.7737L43.5801 32.7C42.8093 31.3294 41.6881 30.1783 40.3377 29.3712C39.6547 28.9631 38.921 28.6477 38.1569 28.4338C37.3686 28.2131 36.5497 28.1012 35.7232 28.1012C34.6113 28.1012 33.526 28.3013 32.4974 28.696C31.5037 29.0772 30.5921 29.6279 29.788 30.3328C28.9884 31.0336 28.3249 31.8605 27.8159 32.7905C27.2944 33.7434 26.9535 34.772 26.8027 35.8476L26.7915 35.9281L26.7104 35.9345C25.8037 36.0054 24.9314 36.2442 24.1176 36.644C23.3269 37.0325 22.6208 37.558 22.0189 38.2058C20.7823 39.5371 20.1012 41.2715 20.1012 43.0897C20.1012 44.0586 20.291 44.9986 20.6652 45.8834C20.8451 46.3086 21.0678 46.7188 21.327 47.1025C21.5837 47.4826 21.8786 47.84 22.2034 48.1648C22.5283 48.4896 22.8857 48.7845 23.2657 49.0413C23.6494 49.3005 24.0596 49.5232 24.4849 49.703C25.3697 50.0773 26.3096 50.267 27.2786 50.267H46.6543H47.8781ZM47.8781 50.3682H46.6543H27.2786C23.2588 50.3682 20 47.1095 20 43.0897C20 39.2637 22.9519 36.1271 26.7025 35.8336C27.3229 31.4066 31.1252 28 35.7232 28C39.1343 28 42.1074 29.8748 43.6684 32.6504C44.6038 32.326 45.6084 32.1497 46.6543 32.1497C51.6852 32.1497 55.7635 36.2281 55.7635 41.259C55.7635 42.7221 55.4184 44.105 54.8054 45.3301C53.8605 48.2537 51.1163 50.3682 47.8781 50.3682Z" fill="white" fill-opacity="0.5"/>
</g>
</g>

</svg>
