<svg width="32" height="33" viewBox="0 0 32 33" fill="none" xmlns="http://www.w3.org/2000/svg">
<path d="M16 32.5042C24.8 32.5042 32 25.3042 32 16.5042C32 7.70421 24.8 0.504211 16 0.504211C7.2 0.504211 0 7.70421 0 16.5042C0 25.3042 7.2 32.5042 16 32.5042Z" fill="#4B4A4B"/>
<path d="M19.6874 10.2103L13.3746 11.7933C12.4528 12.0222 11.5183 12.9567 11.2894 13.8786L9.70647 20.1916C9.22968 22.0988 10.3994 23.2749 12.313 22.7981L18.6258 21.2215C19.5412 20.9926 20.4821 20.0517 20.7109 19.1362L22.2939 12.8169C22.7707 10.9096 21.5946 9.73351 19.6874 10.2103Z" fill="#A4A4A5"/>
</svg>
