<svg width="23" height="33" viewBox="0 0 23 33" fill="none" xmlns="http://www.w3.org/2000/svg">
<path d="M11.1918 14.833C11.0276 14.8168 10.8305 14.8168 10.6499 14.833C8.76491 14.77 6.97888 13.9879 5.67001 12.6523C4.36113 11.3166 3.63218 9.53233 3.63754 7.67725C3.63754 3.7198 6.88915 0.505377 10.929 0.505377C11.8855 0.488407 12.836 0.656901 13.7262 1.00124C14.6165 1.34557 15.4291 1.85901 16.1176 2.51223C16.8061 3.16545 17.3571 3.94566 17.739 4.80832C18.121 5.67098 18.3264 6.59919 18.3437 7.53995C18.3609 8.48071 18.1896 9.41561 17.8396 10.2913C17.4895 11.1669 16.9675 11.9661 16.3034 12.6434C15.6393 13.3206 14.846 13.8625 13.969 14.2382C13.0919 14.6139 12.1482 14.816 11.1918 14.833V14.833ZM2.98065 20.7934C-0.993548 23.4101 -0.993548 27.6745 2.98065 30.2751C7.49677 33.2472 14.9032 33.2472 19.4194 30.2751C23.3935 27.6583 23.3935 23.394 19.4194 20.7934C14.9196 17.8374 7.5132 17.8374 2.98065 20.7934V20.7934Z" fill="#D5D5D5"/>
</svg>
